# AST/ASF file generated using VICON BodyLanguage
# -----------------------------------------------
:version 1.10
:name VICON
:units
  mass 1.0
  length 0.45
  angle deg
:documentation
   .ast/.asf automatically generated from VICON data using
   VICON BodyBuilder and BodyLanguage model FoxedUp or BRILLIANT.MOD
:root
   order TX TY TZ RX RY RZ
   axis XYZ
   position 0 0 0  
   orientation 0 0 0 
:bonedata
  begin
     id 1 
     name lhipjoint
     direction 0.573633 -0.743009 0.344793 
     length 2.46257 
     axis 0 0 0  XYZ
  end
  begin
     id 2 
     name lfemur
     direction 0.34202 -0.939693 0  
     length 7.3842  
     axis 0 0 20  XYZ
    dof rx ry rz
    limits (-160.0 20.0)
           (-70.0 70.0)
           (-60.0 70.0)
  end
  begin
     id 3 
     name ltibia
     direction 0.34202 -0.939693 0   
     length 7.50407   
     axis 0 0 20   XYZ
    dof rx
    limits (-10.0 170.0)
  end
  begin
     id 4 
     name lfoot
     direction 0.110749 -0.304281 0.946123   
     length 1.95925   
     axis -90 7.62852e-016 20   XYZ
    dof rx rz
    limits (-45.0 90.0)
           (-70.0 20.0)
  end
  begin
     id 5 
     name ltoes
     direction 1.53554e-011 -4.21843e-011 1   
     length 0.978318   
     axis -90 7.62852e-016 20   XYZ
    dof rx
    limits (-90.0 20.0)
  end
  begin
     id 6 
     name rhipjoint
     direction -0.488109 -0.791693 0.367385   
     length 2.31113  
     axis 0 0 0  XYZ 
  end
  begin
     id 7 
     name rfemur
     direction -0.34202 -0.939693 0   
     length 7.40965   
     axis 0 0 -20   XYZ
    dof rx ry rz
    limits (-160.0 20.0)
           (-70.0 70.0)
           (-70.0 60.0)
  end
  begin
     id 8 
     name rtibia
     direction -0.34202 -0.939693 0   
     length 7.55548   
     axis 0 0 -20   XYZ
    dof rx
    limits (-10.0 170.0)
 end
 begin
     id 9 
     name rfoot
     direction -0.127594 -0.350561 0.927808   
     length 2.07199  
     axis -90 -7.62852e-016 -20   XYZ
    dof rx rz
    limits (-45.0 90.0)
           (-20.0 70.0)
  end
  begin
     id 10 
     name rtoes
     direction -1.53542e-011 -4.21909e-011 1   
     length 1.02667   
     axis -90 -7.62852e-016 -20   XYZ
    dof rx
    limits (-90.0 20.0)
  end
  begin
     id 11 
     name lowerback
     direction -0.0103342 0.997298 -0.0727278   
     length 2.02836   
     axis 0 0 0   XYZ
    dof rx ry rz
    limits (-20.0 45.0)
           (-30.0 30.0)
           (-30.0 30.0)
  end
  begin
     id 12 
     name upperback
     direction 0.0171146 0.999786 -0.011606   
     length 2.03179   
     axis 0 0 0   XYZ
    dof rx ry rz
    limits (-20.0 45.0)
           (-30.0 30.0)
           (-30.0 30.0)
  end
  begin
     id 13 
     name thorax
     direction 0.0216927 0.999513 0.0224343   
     length 2.03882   
     axis 0 0 0   XYZ
    dof rx ry rz
    limits (-20.0 45.0)
           (-30.0 30.0)
           (-30.0 30.0)
  end
  begin
     id 14 
     name lowerneck
     direction 0.000989287 0.993907 0.110221   
     length 1.75428   
     axis 0 0 0   XYZ
    dof rx ry rz
    limits (-20.0 45.0)
           (-30.0 30.0)
           (-30.0 30.0)
  end
  begin
     id 15 
     name upperneck
     direction -0.0172474 0.994813 -0.100253   
     length 1.77058   
     axis 0 0 0   XYZ
    dof rx ry rz
    limits (-20.0 45.0)
           (-30.0 30.0)
           (-30.0 30.0)
  end
  begin
     id 16
     name head
     direction -0.00486455 0.99894 -0.0457663  
     length 1.77427  
     axis 0 0 0   XYZ
    dof rx ry rz
    limits (-20.0 45.0)
           (-30.0 30.0)
           (-30.0 30.0)
  end
  begin
     id 17 
     name lclavicle
     direction 0.927314 0.333734 -0.169441  
     length 3.97584  
     axis 0 0 0   XYZ
    dof ry rz
    limits (-20.0 10.0)
           (0.0 20.0)
  end
  begin
     id 18 
     name lhumerus
     direction 1 -4.48965e-011 -3.25313e-028   
     length 4.76468   
     axis 180 -30 -90   XYZ
    dof rx ry rz
    limits (-60.0 90.0)
           (-90.0 90.0)
           (-90.0 90.0)
  end
  begin
     id 19
     name lradius
     direction 1 -4.48969e-011 -2.8465e-028   
     length 3.52712   
     axis -180 -30 -90   XYZ
    dof rx
    limits (-10.0 170.0)
  end
  begin
     id 20
     name lwrist
     direction 1 -4.4896e-011 -7.78665e-028   
     length 1.76356   
     axis 1.91374e-015 90 90   XYZ
    dof ry
    limits (-180.0 0.0)
 end
  begin
     id 21 
     name lhand
     direction 1 -4.48959e-011 -1.55733e-027   
     length 0.859564   
     axis 9.9371e-016 90 90   XYZ
    dof rx rz
    limits (-90.0 90.0)
           (-45.0 45.0)
  end
  begin
     id 22 
     name lfingers
     direction 1 -4.48965e-011 -3.11466e-027   
     length 0.693002   
     axis 1.98742e-015 90 90   XYZ
    dof rx
    limits (0.0 90.0)
  end
  begin
     id 23
     name lthumb
     direction 0.707107 -6.34948e-011 0.707107   
     length 0.995017   
     axis -90 45 2.85299e-015   XYZ
    dof rx rz
    limits (-45.0 45.0)
           (-45.0 45.0)
  end
  begin
     id 24 
     name rclavicle
     direction -0.899388 0.348209 -0.264294   
     length 3.68366  
     axis 0 0 0   XYZ 
    dof ry rz
    limits (-10.0 20.0)
           (-20.0 0.0)
  end
  begin
     id 25 
     name rhumerus
     direction -1 -4.48965e-011 -3.01536e-027  
     length 4.90577   
     axis 180 30 90   XYZ
    dof rx ry rz
    limits (-90.0 60.0)
           (-90.0 90.0)
           (-90.0 90.0)
  end
  begin
     id 26 
     name rradius
     direction -1 -4.48966e-011 3.93291e-027   
     length 3.42692   
     axis -180 30 90   XYZ
    dof rx
    limits (-10.0 170.0)
  end
  begin
     id 27 
     name rwrist
     direction -1 -4.48969e-011 -7.78665e-028   
     length 1.71346   
     axis 1.91374e-015 -90 -90   XYZ
    dof ry
    limits (-180.0 0.0)
  end
  begin
     id 28
     name rhand
     direction -1 -4.48967e-011 -1.55733e-027   
     length 0.740957   
     axis 9.9371e-016 -90 -90   XYZ
    dof rx rz
    limits (-90.0 90.0)
           (-45.0 45.0)
  end
  begin
     id 29
     name rfingers
     direction -1 -4.48949e-011 -3.11466e-027   
     length 0.597378   
     axis 1.98742e-015 -90 -90   XYZ
    dof rx
    limits (0.0 90.0)
  end
  begin
     id 30
     name rthumb
     direction -0.707107 -6.34931e-011 0.707107   
     length 0.857719   
     axis -90 -45 -2.85299e-015   XYZ
    dof rx rz
    limits (-45.0 45.0)
           (-45.0 45.0)
  end
:hierarchy
  begin
    root lhipjoint rhipjoint lowerback
    lhipjoint lfemur
    lfemur ltibia
    ltibia lfoot
    lfoot ltoes
    rhipjoint rfemur
    rfemur rtibia
    rtibia rfoot
    rfoot rtoes
    lowerback upperback
    upperback thorax
    thorax lowerneck lclavicle rclavicle
    lowerneck upperneck
    upperneck head
    lclavicle lhumerus
    lhumerus lradius
    lradius lwrist
    lwrist lhand lthumb
    lhand lfingers
    rclavicle rhumerus
    rhumerus rradius
    rradius rwrist
    rwrist rhand rthumb
    rhand rfingers
  end

#!OML:ASF E:\I on waltz\AllaLogoMonkeySwing\Project 1\Capture day 1\Session 1\Subject1.ASF
:FULLY-SPECIFIED
:DEGREES
49
root 0.219472 17.875 -0.709578 1.0381 -1.04624 0.782154
lowerback 8.39137 -2.44426 -6.13761
upperback 0.498991 -3.75915 1.7905
thorax -3.66777 -1.75612 5.74128
lowerneck -5.4375 -9.20847 -8.41129
upperneck 5.18613 -12.2059 7.88149
head 3.4265 -5.95651 3.07187
rclavicle 1.47349e-014 1.11319e-014
rhumerus -30.2142 -37.3395 -71.1029
rradius 16.1541
rwrist 20.2699
rhand -9.15306 -36.1327
rfingers 7.12502
rthumb 16.7991 -65.426
lclavicle 1.47349e-014 1.11319e-014
lhumerus -31.0121 21.4693 85.5397
lradius 32.8599
lwrist -6.37066
lhand -8.19811 -12.1562
lfingers 7.12502
lthumb 17.7182 17.0566
rfemur -11.5764 0.34001 11.6087
rtibia 29.5885
rfoot -17.7366 -7.49891
rtoes 13.5069
lfemur 0.824521 6.85325 -18.1846
ltibia 10.6232
lfoot -11.9346 2.69631
ltoes -24.8911
50
root 0.221257 17.8792 -0.710087 0.995297 -0.945676 0.708953
lowerback 8.41006 -2.42436 -6.12954
upperback 0.538299 -3.73174 1.79864
thorax -3.64087 -1.74471 5.74227
lowerneck -5.50125 -9.32139 -8.47059
upperneck 5.30908 -12.3454 7.76121
head 3.48094 -6.02847 3.02851
rclavicle -1.25234e-014 -1.13307e-014
rhumerus -30.4598 -37.4804 -71.2531
rradius 15.9664
rwrist 20.3509
rhand -9.12748 -36.1078
rfingers 7.12502
rthumb 16.8237 -65.399
lclavicle -1.25234e-014 -1.13307e-014
lhumerus -31.2568 23.0613 84.4382
lradius 31.6675
lwrist -7.87084
lhand -8.23272 -11.9022
lfingers 7.12502
lthumb 17.6849 17.3135
rfemur -11.8083 0.693228 11.7269
rtibia 30.0194
rfoot -18.5939 -7.4295
rtoes 12.5842
lfemur 0.920762 6.72397 -18.1287
ltibia 10.5057
lfoot -11.8483 2.75705
ltoes -25.2103
51
root 0.218992 17.884 -0.706801 0.95114 -0.784604 0.664393
lowerback 8.42755 -2.43856 -6.137
upperback 0.566918 -3.75149 1.80402
thorax -3.61701 -1.75613 5.75399
lowerneck -5.58488 -9.38701 -8.56057
upperneck 5.40557 -12.4228 7.7302
head 3.5334 -6.06695 3.02041
rclavicle -2.90723e-014 1.98785e-016
rhumerus -30.6707 -37.4283 -71.4841
rradius 15.8614
rwrist 20.5356
rhand -8.98392 -36.0433
rfingers 7.12502
rthumb 16.9619 -65.3227
lclavicle -2.90723e-014 1.98785e-016
lhumerus -31.6337 24.749 83.2193
lradius 30.5018
lwrist -9.34338
lhand -8.24276 -11.7331
lfingers 7.12502
lthumb 17.6752 17.4835
rfemur -11.7643 1.08032 11.8225
rtibia 29.8024
rfoot -18.977 -7.25639
rtoes 12.2972
lfemur 1.04025 6.53082 -18.1106
ltibia 10.3792
lfoot -11.7753 2.85226
ltoes -25.5761
52
root 0.211324 17.8893 -0.698686 0.918907 -0.532585 0.632675
lowerback 8.4027 -2.48675 -6.15264
upperback 0.585989 -3.815 1.8087
thorax -3.57276 -1.7898 5.77139
lowerneck -5.55863 -9.42223 -8.62893
upperneck 5.38216 -12.4616 7.68793
head 3.52658 -6.08975 3.01673
rclavicle 4.94477e-014 1.78906e-015
rhumerus -30.8869 -37.3187 -71.7332
rradius 15.8649
rwrist 20.9058
rhand -8.86552 -35.9619
rfingers 7.12502
rthumb 17.0759 -65.2314
lclavicle 4.94477e-014 1.78906e-015
lhumerus -32.1747 26.5047 81.8569
lradius 29.453
lwrist -11.0522
lhand -8.10246 -11.4152
lfingers 7.12502
lthumb 17.8102 17.7892
rfemur -11.4489 1.49987 11.9172
rtibia 28.8148
rfoot -19.0302 -7.09303
rtoes 12.2053
lfemur 1.15039 6.2883 -18.0929
ltibia 10.2644
lfoot -11.7648 2.87335
ltoes -25.405
53
root 0.197369 17.8917 -0.685588 0.903374 -0.147261 0.543616
lowerback 8.31682 -2.57738 -6.13162
upperback 0.603233 -3.92694 1.84056
thorax -3.48983 -1.84963 5.79715
lowerneck -5.5151 -9.46463 -8.65904
upperneck 5.34664 -12.5107 7.6059
head 3.5091 -6.11875 2.99595
rclavicle 6.70898e-015 1.15295e-014
rhumerus -30.9807 -36.859 -72.1724
rradius 15.9863
rwrist 20.9363
rhand -8.82229 -35.9765
rfingers 7.12502
rthumb 17.1175 -65.2425
lclavicle 6.70898e-015 1.15295e-014
lhumerus -32.797 28.2352 80.404
lradius 28.458
lwrist -12.9017
lhand -7.8843 -10.9313
lfingers 7.12502
lthumb 18.0202 18.2539
rfemur -10.9386 1.8378 12.0727
rtibia 27.1749
rfoot -18.4707 -6.69138
rtoes 11.9342
lfemur 1.21869 6.09651 -17.9609
ltibia 10.1925
lfoot -11.7777 2.72343
ltoes -25.3621
54
root 0.179738 17.8901 -0.668641 0.96068 0.330438 0.475773
lowerback 8.13887 -2.69302 -6.12445
upperback 0.587635 -4.06866 1.87854
thorax -3.38414 -1.92422 5.83459
lowerneck -5.45585 -9.51521 -8.6651
upperneck 5.32345 -12.5741 7.51569
head 3.4919 -6.15494 2.96862
rclavicle 2.66868e-014 -3.97569e-016
rhumerus -31.0263 -36.2579 -72.6587
rradius 16.1588
rwrist 20.7138
rhand -8.7998 -35.9957
rfingers 7.12502
rthumb 17.1391 -65.2598
lclavicle 2.66868e-014 -3.97569e-016
lhumerus -33.4451 29.5844 79.0665
lradius 27.5414
lwrist -14.2588
lhand -7.84126 -10.4069
lfingers 7.12502
lthumb 18.0616 18.7744
rfemur -10.2819 2.01555 12.1524
rtibia 24.9081
rfoot -16.5678 -5.66067
rtoes 12.9787
lfemur 1.15621 6.00128 -17.8187
ltibia 10.1893
lfoot -11.795 2.4738
ltoes -25.9071
55
root 0.156654 17.8849 -0.648396 1.02561 0.780456 0.419831
lowerback 7.94255 -2.78492 -6.13598
upperback 0.54085 -4.18051 1.90854
thorax -3.30422 -1.98186 5.87088
lowerneck -5.27555 -9.56684 -8.66309
upperneck 5.23954 -12.6474 7.44145
head 3.43798 -6.19832 2.95156
rclavicle 5.14977e-014 -2.5842e-014
rhumerus -31.1044 -35.6754 -73.0804
rradius 16.3009
rwrist 20.386
rhand -8.80954 -36.061
rfingers 7.12502
rthumb 17.1298 -65.3259
lclavicle 5.14977e-014 -2.5842e-014
lhumerus -34.1397 30.8911 77.6911
lradius 26.6176
lwrist -15.6377
lhand -7.84863 -9.941
lfingers 7.12502
lthumb 18.0545 19.241
rfemur -9.5035 2.23311 12.2026
rtibia 23.0622
rfoot -13.4893 -3.83073
rtoes 19.4781
lfemur 1.09188 5.85826 -17.6496
ltibia 10.1856
lfoot -11.77 2.27141
ltoes -26.1525
56
root 0.128864 17.8791 -0.629215 1.03995 1.1211 0.374493
lowerback 7.84475 -2.82511 -6.17616
upperback 0.47958 -4.23255 1.92852
thorax -3.30175 -2.00567 5.91486
lowerneck -5.07918 -9.60255 -8.75178
upperneck 5.20132 -12.7078 7.51204
head 3.40968 -6.23219 2.99139
rclavicle 3.2054e-015 1.37161e-014
rhumerus -31.1457 -34.9479 -73.546
rradius 16.417
rwrist 19.8524
rhand -8.80528 -36.0933
rfingers 7.12502
rthumb 17.1339 -65.3578
lclavicle 3.2054e-015 1.37161e-014
lhumerus -34.8647 32.1648 76.3045
lradius 25.7561
lwrist -16.8646
lhand -7.90649 -9.55286
lfingers 7.12502
lthumb 17.9988 19.6343
rfemur -9.23604 2.44138 12.427
rtibia 23.2475
rfoot -14.0739 -5.40479
rtoes 13.8192
lfemur 1.10961 5.64611 -17.4707
ltibia 10.1677
lfoot -11.7333 2.16561
ltoes -26.0599
57
root 0.104208 17.8786 -0.614191 1.01212 1.32832 0.293002
lowerback 7.8259 -2.82827 -6.14493
upperback 0.443467 -4.23238 1.96623
thorax -3.32837 -2.00385 5.93724
lowerneck -4.97336 -9.61687 -8.92159
upperneck 5.22931 -12.7363 7.66205
head 3.42407 -6.24672 3.06298
rclavicle 7.25564e-015 -1.33186e-014
rhumerus -31.0253 -34.0132 -74.1384
rradius 16.5581
rwrist 19.1881
rhand -8.65184 -36.1754
rfingers 7.12502
rthumb 17.2816 -65.427
lclavicle 7.25564e-015 -1.33186e-014
lhumerus -35.5575 33.426 75.0093
lradius 24.9987
lwrist -17.8293
lhand -8.03325 -9.4177
lfingers 7.12502
lthumb 17.8768 19.7807
rfemur -8.78652 2.48717 12.589
rtibia 22.7914
rfoot -14.155 -5.5572
rtoes 11.858
lfemur 1.18979 5.40256 -17.2988
ltibia 10.1379
lfoot -11.7225 2.25236
ltoes -26.1827
58
root 0.0867771 17.8851 -0.601444 0.967959 1.41764 0.0982815
lowerback 7.78177 -2.80946 -5.92303
upperback 0.442742 -4.18293 2.03047
thorax -3.32244 -1.98249 5.87239
lowerneck -4.88487 -9.63654 -8.96154
upperneck 5.20811 -12.762 7.61655
head 3.40485 -6.2639 3.05831
rclavicle 3.21534e-014 1.39149e-015
rhumerus -30.859 -33.3694 -74.5537
rradius 16.7009
rwrist 19.4577
rhand -7.73889 -36.9034
rfingers 7.12502
rthumb 18.1601 -66.0756
lclavicle 3.21534e-014 1.39149e-015
lhumerus -36.2509 34.7131 73.7698
lradius 24.3869
lwrist -19.0481
lhand -8.06917 -9.41607
lfingers 7.12502
lthumb 17.8423 19.7854
rfemur -8.26892 2.26429 12.7929
rtibia 21.9766
rfoot -13.8767 -4.95967
rtoes 11.4655
lfemur 1.31784 5.0691 -17.0769
ltibia 10.0397
lfoot -11.6252 2.58177
ltoes -26.587
59
root 0.0723588 17.897 -0.588895 0.940863 1.42058 -0.267376
lowerback 7.67367 -2.76613 -5.47551
upperback 0.46691 -4.07634 2.13073
thorax -3.27536 -1.93801 5.70766
lowerneck -4.90205 -9.67748 -8.84894
upperneck 5.27152 -12.8065 7.3557
head 3.40561 -6.2919 2.95902
rclavicle -2.14936e-014 2.34566e-014
rhumerus -30.7482 -33.2923 -74.6158
rradius 16.7672
rwrist 20.8204
rhand -6.29261 -37.9079
rfingers 7.12502
rthumb 19.551 -66.9449
lclavicle -2.14936e-014 2.34566e-014
lhumerus -36.8786 35.7428 72.7507
lradius 23.9853
lwrist -20.0673
lhand -8.09936 -9.46442
lfingers 7.12502
lthumb 17.8132 19.7397
rfemur -7.86216 2.03906 13.2231
rtibia 21.2725
rfoot -13.5445 -4.55208
rtoes 11.3969
lfemur 1.43499 4.62951 -16.6932
ltibia 9.91917
lfoot -11.4113 3.02586
ltoes -26.7592
60
root 0.0571724 17.9115 -0.574334 0.926182 1.36717 -0.668652
lowerback 7.52504 -2.72763 -5.03463
upperback 0.494543 -3.97484 2.27406
thorax -3.19667 -1.89679 5.5895
lowerneck -4.88449 -9.65373 -8.85063
upperneck 5.34594 -12.7681 7.21266
head 3.41264 -6.2779 2.91902
rclavicle 1.03368e-014 2.96189e-014
rhumerus -30.4744 -32.9879 -74.7467
rradius 16.6438
rwrist 21.3731
rhand -6.00285 -38.2359
rfingers 7.12502
rthumb 19.8296 -67.2444
lclavicle 1.03368e-014 2.96189e-014
lhumerus -37.543 36.7844 71.8328
lradius 23.7204
lwrist -20.8012
lhand -8.21094 -9.53664
lfingers 7.12502
lthumb 17.7059 19.6772
rfemur -7.52468 2.04043 13.7417
rtibia 20.7
rfoot -13.2922 -4.33008
rtoes 11.5373
lfemur 1.52963 4.14753 -16.2722
ltibia 9.83294
lfoot -11.3005 3.50379
ltoes -26.3817
61
root 0.0414178 17.9236 -0.559151 0.931242 1.30004 -0.891582
lowerback 7.38962 -2.69312 -4.84265
upperback 0.477528 -3.90282 2.4032
thorax -3.15177 -1.86439 5.60244
lowerneck -4.77212 -9.57249 -8.96305
upperneck 5.39182 -12.6625 7.22057
head 3.40749 -6.22997 2.95023
rclavicle 2.15681e-014 -2.06736e-014
rhumerus -30.0852 -32.3498 -74.9777
rradius 16.3261
rwrist 20.8571
rhand -6.9959 -37.6704
rfingers 7.12502
rthumb 18.8748 -66.7746
lclavicle 2.15681e-014 -2.06736e-014
lhumerus -38.2853 37.4337 71.1941
lradius 23.7315
lwrist -20.9441
lhand -8.44695 -9.44577
lfingers 7.12502
lthumb 17.4787 19.7884
rfemur -7.20627 2.15845 14.0598
rtibia 20.1485
rfoot -13.1435 -4.17786
rtoes 11.7529
lfemur 1.61482 3.71361 -16.0626
ltibia 9.72998
lfoot -11.3317 3.98481
ltoes -26.0494
62
root 0.0237144 17.9308 -0.546782 0.97901 1.23849 -1.03428
lowerback 7.28823 -2.64018 -4.75766
upperback 0.411915 -3.81842 2.50438
thorax -3.17299 -1.82093 5.64993
lowerneck -4.79547 -9.54613 -8.92236
upperneck 5.61563 -12.6216 7.00013
head 3.4585 -6.21543 2.87565
rclavicle -3.14825e-014 1.51076e-014
rhumerus -29.7283 -31.7704 -75.1542
rradius 15.9208
rwrist 20.1103
rhand -8.3583 -36.2667
rfingers 7.12502
rthumb 17.5641 -65.4933
lclavicle -3.14825e-014 1.51076e-014
lhumerus -39.0024 37.4515 70.9489
lradius 24.1092
lwrist -20.3079
lhand -8.50983 -9.38095
lfingers 7.12502
lthumb 17.4182 19.8586
rfemur -6.95847 2.23174 14.3011
rtibia 19.6314
rfoot -12.9901 -4.10051
rtoes 11.7807
lfemur 1.64816 3.37859 -15.9202
ltibia 9.63979
lfoot -11.3029 4.39318
ltoes -25.9891
63
root 0.00233694 17.9347 -0.537417 1.0622 1.17575 -1.2205
lowerback 7.19507 -2.5959 -4.64262
upperback 0.327494 -3.74396 2.59643
thorax -3.21966 -1.78155 5.67305
lowerneck -4.8879 -9.52511 -8.77582
upperneck 5.94528 -12.5865 6.68008
head 3.54027 -6.20376 2.74971
rclavicle -2.20651e-014 3.45885e-014
rhumerus -29.2859 -31.1205 -75.4528
rradius 15.8353
rwrist 19.9943
rhand -8.51647 -36.962
rfingers 7.12502
rthumb 17.4118 -66.2022
lclavicle -2.20651e-014 3.45885e-014
lhumerus -39.6429 37.2686 70.8473
lradius 24.6505
lwrist -19.3214
lhand -8.17734 -9.35914
lfingers 7.12502
lthumb 17.7382 19.8518
rfemur -6.7812 2.26839 14.6151
rtibia 19.1491
rfoot -12.792 -4.04573
rtoes 11.778
lfemur 1.5834 3.20346 -15.6636
ltibia 9.66774
lfoot -11.2785 4.63708
ltoes -25.9535
